<svg width="0" height="0" style="position:absolute"><symbol viewBox="0 0 13 8" id="arrow" xmlns="http://www.w3.org/2000/svg"><path d="M6.938.5a.823.823 0 0 1 .595.252L12.7 6.04a.872.872 0 0 1-.01 1.209.832.832 0 0 1-1.18.01L6.938 2.578 2.364 7.257a.832.832 0 0 1-1.18-.01.871.871 0 0 1-.01-1.207L6.342.752A.838.838 0 0 1 6.938.5Z"/></symbol><symbol viewBox="0 0 18 19" id="cancel" xmlns="http://www.w3.org/2000/svg"><path d="M9.075 16.71a6.825 6.825 0 1 0 0-13.65 6.825 6.825 0 0 0 0 13.65Z" fill-opacity=".9"/><path d="M11.25 7.56 9 9.81m0 0-2.25 2.25M9 9.81 6.75 7.56M9 9.81l2.25 2.25m4.65-2.176a6.825 6.825 0 1 1-13.65 0 6.825 6.825 0 0 1 13.65 0Z" stroke="currentColor" stroke-linecap="round"/></symbol><symbol viewBox="0 0 10 8" id="check" xmlns="http://www.w3.org/2000/svg"><path d="M4.092 7.45a1.193 1.193 0 0 1-.846-.353L.982 4.833a1.196 1.196 0 1 1 1.692-1.691L4.092 4.56 7.912.74a1.197 1.197 0 1 1 1.691 1.693L4.935 7.1c-.224.224-.526.35-.843.351Z"/></symbol><symbol viewBox="0 0 21 20" id="flower" xmlns="http://www.w3.org/2000/svg"><path d="M19.918 14.641c-.088-.053-2.182-1.311-4.8-1.311-.27 0-.537.01-.802.027.614-.334 1.233-.72 1.806-1.168 2.765-2.16 3.927-5.67 3.975-5.818a.418.418 0 0 0-.078-.398.427.427 0 0 0-.38-.143c-.12.018-2.954.464-5.55 2.824a17.913 17.913 0 0 0-1.894 2.042c.248-.965.423-2.048.423-3.203 0-3.993-2.064-7.183-2.152-7.316-.154-.235-.543-.235-.697 0C9.681.31 7.618 3.5 7.618 7.493c0 1.155.175 2.238.422 3.203a17.908 17.908 0 0 0-1.894-2.042C3.55 6.294.716 5.848.596 5.83a.43.43 0 0 0-.38.143.418.418 0 0 0-.078.398c.048.148 1.21 3.658 3.975 5.818.573.448 1.192.834 1.806 1.168a13.113 13.113 0 0 0-.801-.027c-2.618 0-4.713 1.258-4.8 1.311a.418.418 0 0 0 .002.714c.089.053 2.212 1.31 4.798 1.31.576 0 1.145-.082 1.685-.208a3.653 3.653 0 0 0-.852 2.31.418.418 0 0 0 .535.383c.063-.019 1.554-.474 2.697-1.795.204-.237.37-.471.518-.702v2.93a.417.417 0 1 0 .833 0v-2.93c.149.23.314.465.519.702 1.142 1.321 2.633 1.776 2.696 1.795a.423.423 0 0 0 .36-.06.418.418 0 0 0 .175-.322 3.652 3.652 0 0 0-.855-2.315 7.385 7.385 0 0 0 1.689.212c2.618 0 4.712-1.258 4.8-1.311a.418.418 0 0 0 0-.713Zm-5.268-5.37a11.233 11.233 0 0 1 4.375-2.44c-.474 1.108-1.571 3.26-3.416 4.701-1.528 1.194-3.463 1.96-4.61 2.346.681-1.128 1.995-3.1 3.651-4.607ZM4.626 11.532c-1.84-1.438-2.94-3.592-3.415-4.701.968.279 2.738.952 4.374 2.44 1.655 1.505 2.969 3.478 3.65 4.607-1.147-.386-3.081-1.153-4.609-2.346Zm.492 4.3c-1.506 0-2.869-.485-3.658-.837.781-.35 2.132-.831 3.658-.831 1.51 0 3.015.31 3.942.548-.901.47-2.421 1.12-3.942 1.12Zm3.435.977a5.46 5.46 0 0 1-1.684 1.281c.115-.447.381-1.045.998-1.508.626-.47 1.133-.82 1.519-1.073a5.384 5.384 0 0 1-.833 1.3Zm1.638-3.207-.073.124-.074-.124c-.59-1.137-1.593-3.454-1.593-6.109 0-2.762 1.09-5.171 1.667-6.253.576 1.082 1.666 3.491 1.666 6.253 0 2.655-1.003 4.972-1.593 6.11Zm1.492 3.207a5.359 5.359 0 0 1-.83-1.298c.385.253.89.603 1.515 1.07.62.467.886 1.064 1 1.512a5.442 5.442 0 0 1-1.685-1.284Zm3.435-.978c-1.502 0-3.029-.65-3.938-1.121.927-.237 2.427-.546 3.938-.546 1.523 0 2.879.484 3.662.834-.782.35-2.135.834-3.662.834Z"/></symbol><symbol viewBox="0 0 24 24" id="search" xmlns="http://www.w3.org/2000/svg"><path d="m21.725 20.312-3.71-3.68a9 9 0 1 0-1.39 1.39l3.68 3.68a.995.995 0 1 0 1.42-1.39Zm-10.71-2.29a7 7 0 1 1 0-14 7 7 0 0 1 0 14Z"/></symbol></svg>