<svg width="13" height="8" viewBox="0 0 13 8" fill="none" xmlns="http://www.w3.org/2000/svg">
<path d="M6.9375 0.500001C7.04807 0.499877 7.15757 0.522104 7.25971 0.565404C7.36185 0.608704 7.45463 0.672225 7.5327 0.752316L12.7002 6.0395C12.854 6.20184 12.9392 6.41953 12.9375 6.64558C12.9357 6.87163 12.8472 7.08792 12.6909 7.24777C12.5347 7.40761 12.3232 7.4982 12.1023 7.49997C11.8813 7.50175 11.6685 7.41458 11.5098 7.25726L6.9375 2.57896L2.36518 7.25726C2.20649 7.41458 1.99369 7.50175 1.77272 7.49997C1.55175 7.49819 1.34032 7.40761 1.18407 7.24776C1.02782 7.08792 0.939264 6.87163 0.937527 6.64558C0.935789 6.41953 1.021 6.20184 1.17478 6.0395L6.3423 0.752316C6.42038 0.672225 6.51315 0.608704 6.61529 0.565404C6.71744 0.522104 6.82693 0.499877 6.9375 0.500001Z" fill="#959595"/>
</svg>
