<svg width="10" height="8" viewBox="0 0 10 8" fill="none" xmlns="http://www.w3.org/2000/svg">
<path d="M4.09227 7.45034C3.93492 7.45023 3.77914 7.41898 3.63392 7.35841C3.48869 7.29783 3.35689 7.20913 3.24609 7.0974L0.981973 4.83328C0.868444 4.72271 0.778013 4.59069 0.71593 4.44488C0.653847 4.29907 0.62135 4.14237 0.620325 3.9839C0.619301 3.82543 0.649769 3.66833 0.709961 3.52173C0.770153 3.37513 0.85887 3.24194 0.970959 3.12991C1.08305 3.01788 1.21628 2.92923 1.36291 2.86912C1.50954 2.809 1.66666 2.77862 1.82513 2.77972C1.9836 2.78083 2.14028 2.81341 2.28606 2.87557C2.43183 2.93773 2.56381 3.02823 2.67433 3.14181L4.09227 4.56064L7.91109 0.741813C8.13551 0.517393 8.43989 0.391315 8.75727 0.391315C9.07464 0.391315 9.37902 0.517393 9.60344 0.741813C9.82786 0.966233 9.95394 1.27061 9.95394 1.58799C9.95394 1.90537 9.82786 2.20975 9.60344 2.43417L4.93491 7.09917C4.71148 7.32299 4.40852 7.44925 4.09227 7.45034Z" fill="white"/>
</svg>
