<svg width="21" height="20" viewBox="0 0 21 20" fill="none" xmlns="http://www.w3.org/2000/svg">
<path d="M19.9178 14.6414C19.8299 14.5881 17.7356 13.33 15.1176 13.33C14.848 13.33 14.5805 13.3407 14.3159 13.3569C14.9303 13.0232 15.5492 12.6367 16.1219 12.1892C18.8871 10.0289 20.0492 6.51921 20.0972 6.37099C20.1415 6.2338 20.1122 6.08312 20.0191 5.97278C19.9255 5.86326 19.7839 5.81237 19.6394 5.82988C19.5198 5.84778 16.6845 6.29364 14.0893 8.65387C13.388 9.29188 12.7531 10.0004 12.1952 10.6964C12.4426 9.7307 12.6176 8.6475 12.6176 7.49313C12.6176 3.50022 10.5538 0.310179 10.4659 0.176621C10.3121 -0.0578972 9.92311 -0.0578972 9.76932 0.176621C9.68139 0.310179 7.61761 3.50022 7.61761 7.49313C7.61761 8.6475 7.79261 9.7307 8.04003 10.6964C7.4821 10.0004 6.84722 9.29188 6.14586 8.65391C3.55063 6.29364 0.71537 5.84782 0.595761 5.82992C0.45377 5.81241 0.310137 5.8633 0.216114 5.97282C0.122951 6.08316 0.0936539 6.2338 0.13799 6.37103C0.185997 6.51921 1.3481 10.0289 4.1134 12.1892C4.68606 12.6367 5.305 13.0232 5.91933 13.3569C5.65477 13.3407 5.38723 13.33 5.11766 13.33C2.49966 13.33 0.405371 14.5881 0.317481 14.6414C0.19295 14.7176 0.117287 14.8532 0.117677 14.9989C0.118068 15.1451 0.194982 15.2803 0.319903 15.3552C0.408965 15.4085 2.53177 16.6654 5.11762 16.6654C5.69441 16.6654 6.26285 16.5825 6.80289 16.4566C5.91898 17.4983 5.94859 18.7079 5.95136 18.7679C5.95707 18.8962 6.02137 19.0151 6.12594 19.0896C6.19715 19.1404 6.28179 19.1669 6.36765 19.1669C6.40754 19.1669 6.44742 19.1612 6.48648 19.1498C6.54914 19.1311 8.04003 18.6763 9.1826 17.3551C9.38745 17.1182 9.55256 16.8835 9.701 16.6531V19.5838C9.701 19.8143 9.88737 20.0007 10.1177 20.0007C10.348 20.0007 10.5344 19.8143 10.5344 19.5838V16.6531C10.6828 16.8836 10.8479 17.1183 11.0528 17.3551C12.1953 18.6763 13.6862 19.1311 13.7489 19.1498C13.7879 19.1612 13.8278 19.1669 13.8677 19.1669C13.9536 19.1669 14.0382 19.1404 14.1094 19.0896C14.214 19.0151 14.2783 18.8962 14.284 18.7679C14.2867 18.7079 14.3167 17.4951 13.4294 16.4527C13.9723 16.5808 14.5425 16.6654 15.1177 16.6654C17.7357 16.6654 19.83 15.4073 19.9179 15.354C20.042 15.2782 20.1177 15.1431 20.1177 14.9977C20.1177 14.8524 20.0419 14.7172 19.9178 14.6414ZM14.65 9.27113C16.2866 7.78217 18.0566 7.10914 19.0254 6.83026C18.5506 7.93851 17.454 10.0907 15.6091 11.532C14.0812 12.7258 12.1464 13.4925 10.9994 13.878C11.6801 12.7502 12.9936 10.778 14.65 9.27113ZM4.6261 11.532C2.78528 10.094 1.68666 7.94016 1.21056 6.83069C2.17939 7.10957 3.94899 7.7826 5.58516 9.27117C7.2396 10.776 8.55389 12.7495 9.23545 13.8777C8.08839 13.4921 6.15398 12.7254 4.6261 11.532ZM5.11762 15.8315C3.61208 15.8315 2.249 15.3466 1.45959 14.9953C2.24122 14.6451 3.59216 14.1638 5.11762 14.1638C6.62843 14.1638 8.13276 14.4745 9.06006 14.7119C8.15878 15.1822 6.63863 15.8315 5.11762 15.8315ZM8.55268 16.8095C8.00011 17.4479 7.34093 17.8555 6.86933 18.09C6.98367 17.6429 7.25019 17.0453 7.86745 16.5819C8.49327 16.1125 9.00026 15.7623 9.386 15.5095C9.21225 15.8938 8.94858 16.3515 8.55268 16.8095ZM10.1908 13.6023C10.1663 13.6438 10.1402 13.6873 10.1176 13.7262C10.095 13.6874 10.0689 13.6438 10.0444 13.6023C9.45424 12.4651 8.45093 10.1482 8.45093 7.49313C8.45093 4.73144 9.541 2.32192 10.1176 1.24012C10.6942 2.32192 11.7843 4.73144 11.7843 7.49313C11.7843 10.1482 10.781 12.4651 10.1908 13.6023ZM11.6826 16.8095C11.2895 16.3551 11.0262 15.8971 10.8521 15.5115C11.2378 15.764 11.7436 16.1137 12.3678 16.5819C12.9883 17.0477 13.2544 17.6454 13.3679 18.0928C12.8975 17.8596 12.2392 17.4528 11.6826 16.8095ZM15.1176 15.8315C13.6165 15.8315 12.089 15.1809 11.1804 14.7098C12.1073 14.4733 13.6072 14.1638 15.1176 14.1638C16.6406 14.1638 17.9968 14.6475 18.7797 14.9981C17.9984 15.3487 16.6455 15.8315 15.1176 15.8315Z" fill="#959595"/>
</svg>
